<?xml version="1.0" encoding="utf-8"?>
<!-- Generator: Adobe Illustrator 21.0.0, SVG Export Plug-In . SVG Version: 6.00 Build 0)  -->
<svg version="1.1" xmlns="http://www.w3.org/2000/svg" xmlns:xlink="http://www.w3.org/1999/xlink" x="0px" y="0px"
	 viewBox="0 0 1400 980" enable-background="new 0 0 1400 980" xml:space="preserve">
<g id="background">
</g>
<g id="object">
	<g>
		<circle fill="#231F20" cx="1230.8" cy="136.8" r="44.3"/>
		<circle fill="#FFFFFF" cx="1230.8" cy="136.8" r="38.7"/>
		<circle fill="#00ADEE" cx="1230.8" cy="136.8" r="26.2"/>
		<circle fill="#231F20" cx="1230.8" cy="136.8" r="17.2"/>
		<circle fill="#FFFFFF" cx="1239" cy="127.8" r="11.1"/>
		<circle fill="#231F20" cx="1131.6" cy="136.8" r="44.3"/>
		<circle fill="#FFFFFF" cx="1131.6" cy="136.8" r="38.7"/>
		<circle fill="#00ADEE" cx="1131.6" cy="136.8" r="26.2"/>
		<circle fill="#231F20" cx="1131.6" cy="136.8" r="17.2"/>
		<circle fill="#FFFFFF" cx="1139.8" cy="127.8" r="11.1"/>
		<path fill="#231F20" d="M1131.6,191.6c0,0,67.4,24.1,103.9,1.1c0,0-17.2,49.1-52,45.7C1148.8,235,1131.6,191.6,1131.6,191.6z"/>
		<path fill="#FFFFFF" d="M1163.1,199.6c-0.3,4.4-0.2,14.3,6.9,15.5c9.3,1.5,12.4,1.5,13.8-0.8c1.4-2.3,1.6-5.5,1.6-5.5s0,7,6.3,7.3
			c6.3,0.3,11.6,1,14.1-0.8c1.6-1.2,2.2-8.7,2.4-13.6C1193,203.7,1176.8,202.1,1163.1,199.6z"/>
		<path fill="#F05A28" d="M1186.5,225.1c-11.1-1.2-19.1,2.2-24.2,5.6c6.2,4,13.3,7,21.3,7.7c8.6,0.8,16.1-1.5,22.5-5.5
			C1201.9,229.4,1195.6,226,1186.5,225.1z"/>
		<path fill="#231F20" d="M923.9,87l-69.5,42.7c3.2,21.4,21.6,37.7,43.8,37.7c24.5,0,44.3-19.8,44.3-44.3
			C942.6,108.2,935.2,95,923.9,87z"/>
		<path fill="#FFFFFF" d="M923.2,93.5L860.6,132c4,17.1,19.3,29.8,37.6,29.8c21.4,0,38.7-17.3,38.7-38.7
			C936.9,111.2,931.6,100.6,923.2,93.5z"/>
		<circle fill="#EE4036" cx="897.3" cy="127.1" r="14.4"/>
		<circle fill="#231F20" cx="901.1" cy="130.8" r="9.4"/>
		<circle fill="#FFFFFF" cx="906.8" cy="121.8" r="8.6"/>
		<path fill="#231F20" d="M923.9,540.8l-69.5,42.7c3.2,21.4,21.6,37.7,43.8,37.7c24.5,0,44.3-19.8,44.3-44.3
			C942.6,562,935.2,548.8,923.9,540.8z"/>
		<path fill="#FFFFFF" d="M923.2,547.3l-62.6,38.5c4,17.1,19.3,29.8,37.6,29.8c21.4,0,38.7-17.3,38.7-38.7
			C936.9,565,931.6,554.4,923.2,547.3z"/>
		<circle fill="#EE4036" cx="887.1" cy="586.8" r="14.4"/>
		<circle fill="#231F20" cx="887.1" cy="587.5" r="9.4"/>
		<circle fill="#FFFFFF" cx="890" cy="578.1" r="8.6"/>
		<path fill="#231F20" d="M776.3,87l69.5,42.7c-3.2,21.4-21.6,37.7-43.8,37.7c-24.5,0-44.3-19.8-44.3-44.3
			C757.7,108.2,765,95,776.3,87z"/>
		<path fill="#FFFFFF" d="M777,93.5l62.6,38.5c-4,17.1-19.3,29.8-37.6,29.8c-21.4,0-38.7-17.3-38.7-38.7
			C763.3,111.2,768.6,100.6,777,93.5z"/>
		<circle fill="#EE4036" cx="796.3" cy="129.3" r="14.4"/>
		<circle fill="#231F20" cx="796.3" cy="129.3" r="9.4"/>
		<circle fill="#FFFFFF" cx="802" cy="120.3" r="8.6"/>
		<path fill="#231F20" d="M796.3,177.9c0,0,54.9,11.9,103.9,1.1c0,0-17.2,49.1-52,45.7C813.5,221.3,796.3,177.9,796.3,177.9z"/>
		<path fill="#F05A28" d="M851.1,211.4c-11.1-1.2-19.1,2.2-24.2,5.6c6.2,4,13.3,7,21.3,7.7c8.6,0.8,16.1-1.5,22.5-5.5
			C866.5,215.7,860.2,212.3,851.1,211.4z"/>
		<path fill="#FFFFFF" d="M881.1,201.3c2.8-1.6,6.3-14.2,7.8-20.3c-31.9,4.8-64.3,1.4-81-1.2c1.9,6.1,7.8,23.9,12.7,21.4
			c5.9-3,5.2-5.9,8.9-6.4c3.6-0.5,38.6,0.9,41.4,0.5C873.5,195,877.3,203.4,881.1,201.3z"/>
		<g>
			<circle fill="#231F20" cx="586" cy="140.5" r="45.8"/>
			<circle fill="#FFFFFF" cx="586" cy="140.5" r="40"/>
			<circle fill="#37B34A" cx="586" cy="140.5" r="14.9"/>
			<circle fill="#231F20" cx="586" cy="140.5" r="9.7"/>
			<circle fill="#FFFFFF" cx="591.9" cy="131.1" r="8.9"/>
			<circle fill="#231F20" cx="479.9" cy="140.5" r="45.8"/>
			<circle fill="#FFFFFF" cx="479.9" cy="140.5" r="40"/>
			<circle fill="#37B34A" cx="479.9" cy="140.5" r="14.9"/>
			<circle fill="#231F20" cx="479.9" cy="140.5" r="9.7"/>
			<circle fill="#FFFFFF" cx="485.9" cy="131.1" r="8.9"/>
		</g>
		<g>
			<circle fill="#231F20" cx="533" cy="216.1" r="15.3"/>
			<path fill="#EE4036" d="M533,219.1c-5.3,0-10.1,1.2-14,3.2c2.4,5.4,7.8,9.1,14,9.1c6.3,0,11.6-3.7,14-9.1
				C543.1,220.3,538.2,219.1,533,219.1z"/>
		</g>
		<circle fill="#231F20" cx="276.4" cy="134" r="45.4"/>
		<circle fill="#FFFFFF" cx="276.4" cy="134" r="38.8"/>
		<circle fill="#231F20" cx="276.4" cy="134" r="30"/>
		<circle fill="#FFFFFF" cx="286.9" cy="119.1" r="13.1"/>
		<circle fill="#231F20" cx="276.4" cy="578.1" r="45.4"/>
		<circle fill="#FFFFFF" cx="276.4" cy="578.1" r="38.8"/>
		<circle fill="#231F20" cx="276.4" cy="578.1" r="30"/>
		<circle fill="#FFFFFF" cx="286.9" cy="563.3" r="13.1"/>
		<circle fill="#231F20" cx="175.8" cy="134" r="45.4"/>
		<circle fill="#FFFFFF" cx="175.8" cy="134" r="38.8"/>
		<circle fill="#231F20" cx="175.8" cy="134" r="30"/>
		<circle fill="#FFFFFF" cx="186.2" cy="119.1" r="13.1"/>
		<path fill="#231F20" d="M250.7,204c0,6.1-17.4,20.5-33.1,16.4c-16.1-4.2-29.8-23.7-20.6-20.9c9.2,2.8,14.2,7.2,28.6,6
			C239.9,204.3,250.7,195.9,250.7,204z"/>
		<circle fill="#231F20" cx="1230.8" cy="358.6" r="44.3"/>
		<circle fill="#FFFFFF" cx="1230.8" cy="358.6" r="38.7"/>
		<circle fill="#00ADEE" cx="1241.6" cy="365.5" r="26.2"/>
		<circle fill="#231F20" cx="1241.6" cy="365.5" r="17.2"/>
		<circle fill="#FFFFFF" cx="1249.8" cy="356.5" r="11.1"/>
		<circle fill="#231F20" cx="1224.4" cy="595.2" r="44.3"/>
		<circle fill="#FFFFFF" cx="1224.4" cy="595.2" r="38.7"/>
		<circle fill="#00ADEE" cx="1224.4" cy="595.2" r="26.2"/>
		<circle fill="#231F20" cx="1224.4" cy="595.2" r="17.2"/>
		<circle fill="#FFFFFF" cx="1232.5" cy="586.1" r="11.1"/>
		<circle fill="#231F20" cx="1131.6" cy="358.6" r="44.3"/>
		<circle fill="#FFFFFF" cx="1131.6" cy="358.6" r="38.7"/>
		<circle fill="#00ADEE" cx="1142.3" cy="365.5" r="26.2"/>
		<circle fill="#231F20" cx="1142.3" cy="365.5" r="17.2"/>
		<circle fill="#FFFFFF" cx="1150.5" cy="356.5" r="11.1"/>
		<path fill="#231F20" d="M1235.6,460.4c0,0-67.4-24.1-103.9-1.1c0,0,17.2-49.1,52-45.7C1218.4,417,1235.6,460.4,1235.6,460.4z"/>
		<path fill="#231F20" d="M759.3,327.5l81.5,1c8.2,20,0.8,43.5-18.3,54.9c-21,12.5-48.2,5.7-60.7-15.3
			C754.2,355.3,753.7,340.2,759.3,327.5z"/>
		<path fill="#FFFFFF" d="M763.3,332.8l73.4,0.9c5.3,16.7-1.3,35.5-17,44.9c-18.3,11-42.1,5-53-13.4
			C760.5,355,759.7,343.2,763.3,332.8z"/>
		<circle fill="#EE4036" cx="777.2" cy="351.1" r="14.4"/>
		<circle fill="#231F20" cx="777.2" cy="351.1" r="9.4"/>
		<circle fill="#FFFFFF" cx="782.9" cy="342.1" r="8.6"/>
		<path fill="#231F20" d="M855.6,327.5l81.5,1c8.2,20,0.8,43.5-18.3,54.9c-21,12.5-48.2,5.7-60.7-15.3
			C850.5,355.3,850,340.2,855.6,327.5z"/>
		<path fill="#FFFFFF" d="M859.6,332.8l73.4,0.9c5.3,16.7-1.3,35.5-17,44.9c-18.3,11-42.1,5-53-13.4
			C856.9,355,856,343.2,859.6,332.8z"/>
		<circle fill="#EE4036" cx="873.5" cy="351.1" r="14.4"/>
		<circle fill="#231F20" cx="873.5" cy="351.1" r="9.4"/>
		<circle fill="#FFFFFF" cx="879.3" cy="342.1" r="8.6"/>
		<path fill="#231F20" d="M784.2,654c0,0,59.5,4.4,108.6-6.3c0,0-18.1,26.2-52.8,22.7S784.2,654,784.2,654z"/>
		<g>
			<circle fill="#231F20" cx="586" cy="362.3" r="45.8"/>
			<circle fill="#FFFFFF" cx="586" cy="362.3" r="40"/>
			<circle fill="#37B34A" cx="608" cy="373.7" r="14.9"/>
			<circle fill="#231F20" cx="608" cy="373.7" r="9.7"/>
			<circle fill="#FFFFFF" cx="614" cy="364.4" r="8.9"/>
			<circle fill="#231F20" cx="479.9" cy="362.3" r="45.8"/>
			<circle fill="#FFFFFF" cx="479.9" cy="362.3" r="40"/>
			<circle fill="#37B34A" cx="500.7" cy="370.8" r="14.9"/>
			<circle fill="#231F20" cx="500.7" cy="370.8" r="9.7"/>
			<circle fill="#FFFFFF" cx="506.7" cy="361.5" r="8.9"/>
			<ellipse fill="#231F20" cx="535.2" cy="426.9" rx="15.3" ry="6.6"/>
		</g>
		<circle fill="#231F20" cx="586" cy="585.2" r="45.8"/>
		<circle fill="#FFFFFF" cx="586" cy="585.2" r="40"/>
		<circle fill="#37B34A" cx="586" cy="585.2" r="14.9"/>
		<circle fill="#231F20" cx="586" cy="585.2" r="9.7"/>
		<circle fill="#FFFFFF" cx="591.9" cy="576.3" r="8.9"/>
		<circle fill="#231F20" cx="276.4" cy="355.8" r="45.4"/>
		<circle fill="#FFFFFF" cx="276.4" cy="355.8" r="38.8"/>
		<circle fill="#231F20" cx="262.3" cy="361.1" r="30"/>
		<circle fill="#FFFFFF" cx="272.7" cy="346.2" r="13.1"/>
		<circle fill="#231F20" cx="172.1" cy="355.8" r="45.4"/>
		<circle fill="#FFFFFF" cx="172.1" cy="355.8" r="38.8"/>
		<circle fill="#231F20" cx="158" cy="361.1" r="30"/>
		<circle fill="#FFFFFF" cx="168.5" cy="346.2" r="13.1"/>
		<path fill="#231F20" d="M196.4,430.8c10.1-6,32.9-15.1,46.5-6.3s16,20.1,6.8,17.2c-9.2-2.8-14.2-7.2-28.6-6
			C206.8,436.9,180.5,440.3,196.4,430.8z"/>
		<path fill="#FFFFFF" d="M1180.4,431.1c1.5-3.3,1.8-7.8,1.8-7.8s0,10,6.8,10.5c6.8,0.5,12.6,1.4,15.2-1.1c0.9-0.8,1.7-5.2,2.3-10.3
			c-6.5-4.6-14.1-8-22.9-8.8c-9.8-1-18.2,2.3-25.3,7.4c0.8,5.3,2.7,10.4,7.1,11.3C1175.5,434.4,1178.9,434.4,1180.4,431.1z"/>
		<path fill="#FFFFFF" d="M802.5,654.7c-0.1,0-0.1,0.1-0.2,0.1c0,0,49,2.4,53.8,2.4c4.8,0,6,6.2,12.1,6.9c0,0,0,0,0,0
			c6.1,0.7,6.4-12.8,6.4-12.8c-0.2-0.1-0.4-0.2-0.6-0.3C847.3,654.9,819.9,655.1,802.5,654.7z"/>
		<path fill="#231F20" d="M892.8,429c0,0-59.5-4.4-108.6,6.3c0,0,18.1-26.2,52.8-22.7C871.8,416,892.8,429,892.8,429z"/>
		<path fill="#FFFFFF" d="M837.1,412.6c-12.7-1.2-23.1,1.5-31.3,5.4c0,0,0.3,13.5,6.8,12.8c0,0,0,0,0,0c6.5-0.7,6.9-10.4,12-10.4
			c5.1,0,50.9,0.8,51,0.8C866,417.8,853,414.2,837.1,412.6z"/>
		<path fill="#231F20" d="M1141.5,609.8c-0.5,0-1,0-1.6,0c-1.3-0.1-3.2-0.2-5.3-0.3c-10.2-0.6-29.1-1.9-38.8,0.2
			c-2.4,0.5-4.7-1-5.2-3.4c-0.5-2.4,1-4.7,3.4-5.2c10.7-2.2,29.2-1.1,40.6-0.4c-3.3-4.3-9-10.2-17.3-14.3
			c-14.6-7.3-33.2-5.4-33.4-5.3c-2.4,0.3-4.6-1.5-4.9-3.9c-0.3-2.4,1.5-4.6,3.9-4.9c0.9-0.1,21.4-2.2,38.3,6.2
			c8.7,4.3,14.9,10.3,18.5,14.5c3.3,3.8,6.7,9,7,11.8c0.2,1.6-0.5,3.2-1.7,4.2C1143.9,609.6,1142.8,609.8,1141.5,609.8z"/>
		<path fill="#231F20" d="M820.2,614.2c-0.5,0-1,0-1.6,0c-1.3-0.1-3.2-0.2-5.3-0.3c-10.2-0.6-29.1-1.9-38.8,0.2
			c-2.4,0.5-4.7-1-5.2-3.4c-0.5-2.4,1-4.7,3.4-5.2c10.7-2.2,29.2-1.1,40.6-0.4c-3.3-4.3-9-10.2-17.3-14.3
			c-14.6-7.3-33.2-5.4-33.4-5.3c-2.4,0.3-4.6-1.5-4.9-3.9c-0.3-2.4,1.5-4.6,3.9-4.9c0.9-0.1,21.4-2.2,38.3,6.2
			c8.7,4.3,14.9,10.3,18.5,14.5c3.3,3.8,6.7,9,7,11.8c0.2,1.6-0.5,3.2-1.7,4.2C822.7,614,821.5,614.2,820.2,614.2z"/>
		<path fill="#231F20" d="M498,602.4c-0.5,0-1,0-1.6,0c-1.3-0.1-3.2-0.2-5.3-0.3c-10.2-0.6-29.1-1.9-38.8,0.2
			c-2.4,0.5-4.7-1-5.2-3.4c-0.5-2.4,1-4.7,3.4-5.2c10.5-2.2,28.5-1.2,39.9-0.4c-3.6-4.2-9.4-9.8-16.9-14.4
			c-7.1-4.4-16.8-3.9-16.9-3.8c-2.4,0.2-4.6-1.7-4.7-4.1c-0.2-2.4,1.7-4.6,4.1-4.7c0.5,0,12.5-0.8,22.2,5.1
			c8.3,5.1,14.3,10.9,17.9,14.9c2.6,2.9,7.1,8.3,7.2,11.4c0.1,1.5-0.6,3-1.7,3.9C500.5,602.2,499.4,602.4,498,602.4z"/>
		<path fill="#231F20" d="M200.4,599.6c-0.7,0-1.5,0-2.4,0c-2.1-0.1-5.2-0.2-8.7-0.3c-15.8-0.6-45.3-1.8-55,0.3
			c-2.4,0.5-4.7-1-5.2-3.4c-0.5-2.4,1-4.7,3.4-5.2c10.7-2.3,39.8-1.1,57.2-0.4c1.5,0.1,3,0.1,4.4,0.2c-3.3-4.3-9-10.3-17.4-14.5
			c-14.6-7.3-33.2-5.4-33.4-5.3c-2.4,0.3-4.6-1.5-4.9-3.9c-0.3-2.4,1.5-4.6,3.9-4.9c0.9-0.1,21.4-2.2,38.3,6.2
			c8.7,4.3,14.9,10.3,18.5,14.5c3.3,3.8,6.7,9,7,11.8c0.2,1.6-0.5,3.2-1.7,4.2C203.2,599.4,202.3,599.6,200.4,599.6z"/>
		<path fill="#231F20" d="M1173.1,681.8c-8.8,0-17.6-1.6-26.3-4.7c-21.3-7.6-34.5-21.8-35.1-22.4c-1.7-1.8-1.5-4.6,0.3-6.3
			c1.8-1.7,4.6-1.5,6.3,0.3c0.1,0.1,12.5,13.3,31.9,20.2c25.5,9,50.8,3.1,75.2-17.5c1.9-1.6,4.7-1.3,6.2,0.5
			c1.6,1.9,1.3,4.7-0.5,6.2c-14.8,12.5-30.2,20.1-46,22.7C1181,681.5,1177,681.8,1173.1,681.8z"/>
		<circle fill="#231F20" cx="1224.4" cy="805.1" r="44.3"/>
		<circle fill="#FFFFFF" cx="1224.4" cy="805.1" r="38.7"/>
		<circle fill="#00ADEE" cx="1224.4" cy="799.6" r="26.2"/>
		<circle fill="#231F20" cx="1224.4" cy="799.6" r="17.2"/>
		<circle fill="#FFFFFF" cx="1232.5" cy="790.6" r="11.1"/>
		<circle fill="#231F20" cx="1116.1" cy="805.1" r="44.3"/>
		<circle fill="#FFFFFF" cx="1116.1" cy="805.1" r="38.7"/>
		<circle fill="#00ADEE" cx="1116.1" cy="799.6" r="26.2"/>
		<circle fill="#231F20" cx="1116.1" cy="799.6" r="17.2"/>
		<circle fill="#FFFFFF" cx="1124.3" cy="790.6" r="11.1"/>
		<path fill="#231F20" d="M1228.1,891.7c-1.2,0-2.4-0.5-3.3-1.4c-0.1-0.1-12.5-13.3-31.9-20.2c-25.6-9-50.8-3.1-75.2,17.5
			c-1.9,1.6-4.7,1.3-6.2-0.5c-1.6-1.9-1.3-4.7,0.5-6.2c14.8-12.5,30.2-20.1,46-22.7c12.7-2,25.5-0.8,38.2,3.7
			c21.3,7.6,34.5,21.8,35.1,22.4c1.7,1.8,1.5,4.6-0.3,6.3C1230.2,891.3,1229.1,891.7,1228.1,891.7z"/>
		<path fill="#231F20" d="M223.6,681.7c-13.6,0-25.3-3.7-34.2-7.9c-2.2-1-3.2-3.7-2.1-5.9c1-2.2,3.7-3.2,5.9-2.1
			c20.6,9.6,41.3,9.5,61.6-0.5c2.2-1.1,4.9-0.2,5.9,2c1.1,2.2,0.2,4.9-2,5.9C246.1,679.5,234.3,681.7,223.6,681.7z"/>
		<g>
			<circle fill="#231F20" cx="276.4" cy="794.4" r="45.4"/>
			<circle fill="#FFFFFF" cx="276.4" cy="794.4" r="38.8"/>
			<circle fill="#231F20" cx="276.4" cy="794.4" r="30"/>
			<circle fill="#FFFFFF" cx="286.9" cy="779.6" r="13.1"/>
			<circle fill="#231F20" cx="170.3" cy="794.4" r="45.4"/>
			<circle fill="#FFFFFF" cx="170.3" cy="794.4" r="38.8"/>
			<circle fill="#231F20" cx="170.3" cy="794.4" r="30"/>
			<circle fill="#FFFFFF" cx="180.7" cy="779.6" r="13.1"/>
		</g>
		<path fill="#231F20" d="M190.7,891.6c-1.6,0-3.2-0.9-4-2.5c-1.1-2.2-0.2-4.9,2-5.9c28.5-14,53.4-8,69.3-0.6c2.2,1,3.2,3.7,2.1,5.9
			c-1,2.2-3.7,3.2-5.9,2.1c-20.6-9.6-41.3-9.5-61.6,0.5C192,891.4,191.3,891.6,190.7,891.6z"/>
		<path fill="#231F20" d="M533.5,664.1c-9.8,0-18.8-1.7-25.9-4.5l0,0c0,10.9,11.6,19.8,25.9,19.8c14.3,0,25.9-8.8,25.9-19.8l0,0
			C552.3,662.4,543.3,664.1,533.5,664.1z"/>
		<g>
			<g>
				<circle fill="#231F20" cx="586" cy="812.3" r="45.8"/>
				<circle fill="#FFFFFF" cx="586" cy="812.3" r="40"/>
				<circle fill="#37B34A" cx="586" cy="812.3" r="14.9"/>
				<circle fill="#231F20" cx="586" cy="812.3" r="9.7"/>
				<circle fill="#FFFFFF" cx="591.9" cy="803" r="8.9"/>
				<circle fill="#231F20" cx="479.9" cy="812.3" r="45.8"/>
				<circle fill="#FFFFFF" cx="479.9" cy="812.3" r="40"/>
				<circle fill="#37B34A" cx="479.9" cy="812.3" r="14.9"/>
				<circle fill="#231F20" cx="479.9" cy="812.3" r="9.7"/>
				<circle fill="#FFFFFF" cx="485.9" cy="803" r="8.9"/>
			</g>
			<path fill="#231F20" d="M533.5,883.1c9.8,0,20.4,5.3,25.9,9.9l0,0c0-10.9-11.6-19.8-25.9-19.8c-14.3,0-25.9,8.8-25.9,19.8l0,0
				C513.9,887.6,523.6,883.1,533.5,883.1z"/>
		</g>
		<g>
			<path fill="#231F20" d="M759.3,792.3l81.5,1c8.2,20,0.8,43.5-18.3,54.9c-21,12.5-48.2,5.7-60.7-15.3
				C754.2,820.1,753.7,805,759.3,792.3z"/>
			<path fill="#FFFFFF" d="M763.3,797.5l73.4,0.9c5.3,16.7-1.3,35.5-17,44.9c-18.3,11-42.1,5-53-13.4
				C760.5,819.8,759.7,808,763.3,797.5z"/>
			<circle fill="#EE4036" cx="799.8" cy="811.9" r="14.4"/>
			<circle fill="#231F20" cx="799.8" cy="811.9" r="9.4"/>
			<circle fill="#FFFFFF" cx="811" cy="806.9" r="8.6"/>
			<path fill="#231F20" d="M855.6,792.3l81.5,1c8.2,20,0.8,43.5-18.3,54.9c-21,12.5-48.2,5.7-60.7-15.3
				C850.5,820.1,850,805,855.6,792.3z"/>
			<path fill="#FFFFFF" d="M859.6,797.5l73.4,0.9c5.3,16.7-1.3,35.5-17,44.9c-18.3,11-42.1,5-53-13.4
				C856.9,819.8,856,808,859.6,797.5z"/>
			<path fill="#EE4036" d="M910.5,815.9c0,7.9-6.4,14.4-14.4,14.4c-7.9,0-14.4-17.1-14.4-14.4c0-7.9,6.4-14.4,14.4-14.4
				C904.1,801.5,910.5,808,910.5,815.9z"/>
			<circle fill="#231F20" cx="896.2" cy="811.9" r="9.4"/>
			<circle fill="#FFFFFF" cx="905.6" cy="806.5" r="8.6"/>
			<path fill="#231F20" d="M888.4,868.2h-82.8c-2.4,0-4.3,1.9-4.3,4.3c0,2.4,1.9,4.3,4.3,4.3h82.8c2.4,0,4.3-1.9,4.3-4.3
				C892.7,870.1,890.7,868.2,888.4,868.2z"/>
			<path fill="#FFFFFF" d="M869.7,868.2c0,0,6.8,15.7,10.1,14.9c3.2-0.9,7-14.9,7-14.9H869.7z"/>
		</g>
	</g>
</g>
<g id="text">
</g>
</svg>
