<?xml version="1.0" encoding="utf-8"?>
<!-- Generator: Adobe Illustrator 21.0.0, SVG Export Plug-In . SVG Version: 6.00 Build 0)  -->
<svg version="1.1" xmlns="http://www.w3.org/2000/svg" xmlns:xlink="http://www.w3.org/1999/xlink" x="0px" y="0px"
	 viewBox="0 0 1400 980" enable-background="new 0 0 1400 980" xml:space="preserve">
<g id="background">
</g>
<g id="object">
	<g>
		<g>
			<circle fill="#060000" cx="186.1" cy="174.2" r="32"/>
			<path fill="#060000" d="M215.3,133.3c-0.9,0-1.7-0.3-2.4-0.9c-7.3-6.8-16.8-10.6-26.8-10.6c-9.8,0-19.2,3.7-26.5,10.3
				c-1.4,1.3-3.6,1.2-4.9-0.2c-1.3-1.4-1.2-3.6,0.2-4.9c8.5-7.8,19.6-12.2,31.2-12.2c11.8,0,23,4.4,31.6,12.5
				c1.4,1.3,1.5,3.5,0.2,4.9C217.1,132.9,216.2,133.3,215.3,133.3z"/>
			<circle fill="#FFFEFF" cx="191.6" cy="160.9" r="13.3"/>
			<circle fill="#FFFEFF" cx="176.8" cy="184.9" r="4.6"/>
			<circle fill="#060000" cx="287.1" cy="174.2" r="32"/>
			<path fill="#060000" d="M257.9,133.3c-0.9,0-1.9-0.4-2.6-1.1c-1.3-1.4-1.3-3.6,0.2-4.9c8.6-8.1,19.8-12.5,31.6-12.5
				c11.6,0,22.7,4.3,31.2,12.2c1.4,1.3,1.5,3.5,0.2,4.9c-1.3,1.4-3.5,1.5-4.9,0.2c-7.2-6.6-16.6-10.3-26.5-10.3
				c-10,0-19.5,3.8-26.8,10.6C259.6,133,258.7,133.3,257.9,133.3z"/>
			<circle fill="#FFFEFF" cx="281.6" cy="160.9" r="13.3"/>
			<circle fill="#FFFEFF" cx="296.3" cy="184.9" r="4.6"/>
		</g>
		<path fill="#060000" d="M481.4,772c-11.8,0-23-4.4-31.6-12.5c-1.4-1.3-1.5-3.5-0.2-4.9c1.3-1.4,3.5-1.5,4.9-0.2
			c7.3,6.8,16.8,10.6,26.8,10.6c9.8,0,19.2-3.7,26.5-10.3c1.4-1.3,3.6-1.2,4.9,0.2c1.3,1.4,1.2,3.6-0.2,4.9
			C504.1,767.7,493,772,481.4,772z"/>
		<path fill="#060000" d="M581.7,772c-11.6,0-22.7-4.3-31.2-12.2c-1.4-1.3-1.5-3.5-0.2-4.9c1.3-1.4,3.5-1.5,4.9-0.2
			c7.2,6.6,16.6,10.3,26.5,10.3c10,0,19.5-3.8,26.8-10.6c1.4-1.3,3.6-1.3,4.9,0.2c1.3,1.4,1.3,3.6-0.2,4.9
			C604.7,767.6,593.5,772,581.7,772z"/>
		<circle fill="#060000" cx="792.2" cy="174.2" r="32"/>
		<circle fill="#FFFEFF" cx="797.7" cy="160.9" r="13.3"/>
		<circle fill="#FFFEFF" cx="783" cy="184.9" r="4.6"/>
		<circle fill="#060000" cx="893.2" cy="174.2" r="32"/>
		<path fill="#060000" d="M864,127.5c-0.9,0-1.9-0.4-2.6-1.1c-1.3-1.4-1.3-3.6,0.2-4.9c8.6-8.1,19.8-12.5,31.6-12.5
			c11.6,0,22.7,4.3,31.2,12.2c1.4,1.3,1.5,3.5,0.2,4.9c-1.3,1.4-3.5,1.5-4.9,0.2c-7.2-6.6-16.6-10.3-26.5-10.3
			c-10,0-19.5,3.8-26.8,10.6C865.8,127.2,864.9,127.5,864,127.5z"/>
		<circle fill="#FFFEFF" cx="887.7" cy="160.9" r="13.3"/>
		<circle fill="#FFFEFF" cx="902.5" cy="184.9" r="4.6"/>
		<path fill="#060000" d="M760.3,380.5c-0.1,0.8-0.1,1.7-0.1,2.5c0,17.7,14.3,32,32,32s32-14.3,32-32c0-0.8,0-1.7-0.1-2.5H760.3z"/>
		<path fill="#FFFEFF" d="M784.6,380.5c0.8,6.6,6.4,11.7,13.2,11.7s12.4-5.1,13.2-11.7H784.6z"/>
		<circle fill="#FFFEFF" cx="783" cy="403" r="4.6"/>
		<path fill="#060000" d="M861.3,380.5c-0.1,0.8-0.1,1.7-0.1,2.5c0,17.7,14.3,32,32,32s32-14.3,32-32c0-0.8,0-1.7-0.1-2.5H861.3z"/>
		<path fill="#FFFEFF" d="M874.6,380.5c0.8,6.6,6.4,11.7,13.2,11.7s12.4-5.1,13.2-11.7H874.6z"/>
		<circle fill="#FFFEFF" cx="902.5" cy="403" r="4.6"/>
		<g>
			<circle fill="#060000" cx="1113" cy="174.2" r="32"/>
			<path fill="#060000" d="M1103.8,134.5c-7.5,0-15-1.9-21.8-5.5c-1.7-0.9-2.3-3-1.4-4.7c0.9-1.7,3-2.3,4.7-1.4
				c8.8,4.7,19,5.9,28.6,3.3c9.5-2.5,17.6-8.5,22.9-16.8c1-1.6,3.2-2.1,4.8-1.1c1.6,1,2.1,3.2,1.1,4.8c-6.2,9.8-15.8,16.8-27,19.8
				C1111.8,134,1107.8,134.5,1103.8,134.5z"/>
			<circle fill="#FFFEFF" cx="1118.5" cy="160.9" r="13.3"/>
			<circle fill="#FFFEFF" cx="1103.7" cy="184.9" r="4.6"/>
			<circle fill="#060000" cx="1214" cy="174.2" r="32"/>
			<path fill="#060000" d="M1184.8,133.3c-0.9,0-1.9-0.4-2.6-1.1c-1.3-1.4-1.3-3.6,0.2-4.9c8.6-8.1,19.8-12.5,31.6-12.5
				c11.6,0,22.7,4.3,31.2,12.2c1.4,1.3,1.5,3.5,0.2,4.9c-1.3,1.4-3.5,1.5-4.9,0.2c-7.2-6.6-16.6-10.3-26.5-10.3
				c-10,0-19.5,3.8-26.8,10.6C1186.5,133,1185.7,133.3,1184.8,133.3z"/>
			<circle fill="#FFFEFF" cx="1208.5" cy="160.9" r="13.3"/>
			<circle fill="#FFFEFF" cx="1223.2" cy="184.9" r="4.6"/>
		</g>
		<path fill="#060000" d="M215.3,354.5c-1.1,0-2.2-0.5-2.9-1.5c-7.3-10.2-16.6-15.8-26.3-15.8c-9.6,0-18.8,5.5-26,15.4
			c-1.1,1.6-3.3,1.9-4.9,0.8c-1.6-1.1-1.9-3.3-0.8-4.9c8.6-11.8,19.8-18.3,31.7-18.3c12.1,0,23.4,6.7,32,18.8
			c1.1,1.6,0.8,3.8-0.8,4.9C216.7,354.3,216,354.5,215.3,354.5z"/>
		<path fill="#060000" d="M257.9,354.5c-0.7,0-1.4-0.2-2-0.6c-1.6-1.1-1.9-3.3-0.8-4.9c8.6-12.1,20-18.8,32-18.8
			c11.9,0,23.1,6.5,31.7,18.3c1.1,1.6,0.8,3.8-0.8,4.9c-1.6,1.1-3.8,0.8-4.9-0.8c-7.2-9.9-16.5-15.4-26-15.4
			c-9.7,0-19.1,5.6-26.3,15.8C260.1,354,259,354.5,257.9,354.5z"/>
		<path fill="#060000" d="M821.4,344.1c-0.9,0-1.7-0.3-2.4-0.9c-7.3-6.8-16.8-10.6-26.8-10.6c-9.8,0-19.2,3.7-26.5,10.3
			c-1.4,1.3-3.6,1.2-4.9-0.2c-1.3-1.4-1.2-3.6,0.2-4.9c8.5-7.8,19.6-12.2,31.2-12.2c11.8,0,23,4.4,31.6,12.5
			c1.4,1.3,1.5,3.5,0.2,4.9C823.3,343.8,822.4,344.1,821.4,344.1z"/>
		<path fill="#060000" d="M821.4,127.5c-0.9,0-1.7-0.3-2.4-0.9c-7.3-6.8-16.8-10.6-26.8-10.6c-9.8,0-19.2,3.7-26.5,10.3
			c-1.4,1.3-3.6,1.2-4.9-0.2c-1.3-1.4-1.2-3.6,0.2-4.9c8.5-7.8,19.6-12.2,31.2-12.2c11.8,0,23,4.4,31.6,12.5
			c1.4,1.3,1.5,3.5,0.2,4.9C823.3,127.2,822.4,127.5,821.4,127.5z"/>
		<path fill="#060000" d="M892.9,344.1c-11.6,0-22.7-4.3-31.2-12.2c-1.4-1.3-1.5-3.5-0.2-4.9c1.3-1.4,3.5-1.5,4.9-0.2
			c7.2,6.6,16.6,10.3,26.5,10.3c10,0,19.5-3.8,26.8-10.6c1.4-1.3,3.6-1.3,4.9,0.2c1.3,1.4,1.3,3.6-0.2,4.9
			C915.9,339.7,904.7,344.1,892.9,344.1z"/>
		<circle fill="#060000" cx="1113" cy="385" r="32"/>
		<path fill="#060000" d="M1142.2,344.1c-0.9,0-1.7-0.3-2.4-0.9c-7.3-6.8-16.8-10.6-26.8-10.6c-9.8,0-19.2,3.7-26.5,10.3
			c-1.4,1.3-3.6,1.2-4.9-0.2c-1.3-1.4-1.2-3.6,0.2-4.9c8.5-7.8,19.6-12.2,31.2-12.2c11.8,0,23,4.4,31.6,12.5
			c1.4,1.3,1.5,3.5,0.2,4.9C1144,343.8,1143.1,344.1,1142.2,344.1z"/>
		<circle fill="#FFFEFF" cx="1118.5" cy="371.7" r="13.3"/>
		<circle fill="#FFFEFF" cx="1103.7" cy="395.7" r="4.6"/>
		<circle fill="#060000" cx="1214" cy="385" r="32"/>
		<path fill="#060000" d="M1184.8,344.1c-0.9,0-1.9-0.4-2.6-1.1c-1.3-1.4-1.3-3.6,0.2-4.9c8.6-8.1,19.8-12.5,31.6-12.5
			c11.6,0,22.7,4.3,31.2,12.2c1.4,1.3,1.5,3.5,0.2,4.9c-1.3,1.4-3.5,1.5-4.9,0.2c-7.2-6.6-16.6-10.3-26.5-10.3
			c-10,0-19.5,3.8-26.8,10.6C1186.5,343.8,1185.7,344.1,1184.8,344.1z"/>
		<circle fill="#FFFEFF" cx="1208.5" cy="371.7" r="13.3"/>
		<circle fill="#FFFEFF" cx="1223.2" cy="395.7" r="4.6"/>
		<circle fill="#060000" cx="186.1" cy="591.8" r="32"/>
		<path fill="#060000" d="M215.3,550.9c-0.9,0-1.7-0.3-2.4-0.9c-7.3-6.8-16.8-10.6-26.8-10.6c-9.8,0-19.2,3.7-26.5,10.3
			c-1.4,1.3-3.6,1.2-4.9-0.2c-1.3-1.4-1.2-3.6,0.2-4.9c8.5-7.8,19.6-12.2,31.2-12.2c11.8,0,23,4.4,31.6,12.5
			c1.4,1.3,1.5,3.5,0.2,4.9C217.1,550.5,216.2,550.9,215.3,550.9z"/>
		<circle fill="#FFFEFF" cx="191.6" cy="578.5" r="13.3"/>
		<circle fill="#FFFEFF" cx="176.8" cy="602.5" r="4.6"/>
		<circle fill="#060000" cx="287.1" cy="591.8" r="32"/>
		<path fill="#060000" d="M257.9,550.9c-0.9,0-1.9-0.4-2.6-1.1c-1.3-1.4-1.3-3.6,0.2-4.9c8.6-8.1,19.8-12.5,31.6-12.5
			c11.6,0,22.7,4.3,31.2,12.2c1.4,1.3,1.5,3.5,0.2,4.9c-1.3,1.4-3.5,1.5-4.9,0.2c-7.2-6.6-16.6-10.3-26.5-10.3
			c-10,0-19.5,3.8-26.8,10.6C259.6,550.6,258.7,550.9,257.9,550.9z"/>
		<circle fill="#FFFEFF" cx="281.6" cy="578.5" r="13.3"/>
		<circle fill="#FFFEFF" cx="296.3" cy="602.5" r="4.6"/>
		<path fill="#060000" d="M510.3,550.9c-0.9,0-1.7-0.3-2.4-0.9c-7.3-6.8-16.8-10.6-26.8-10.6c-9.8,0-19.2,3.7-26.5,10.3
			c-1.4,1.3-3.6,1.2-4.9-0.2c-1.3-1.4-1.2-3.6,0.2-4.9c8.5-7.8,19.6-12.2,31.2-12.2c11.8,0,23,4.4,31.6,12.5
			c1.4,1.3,1.5,3.5,0.2,4.9C512.1,550.5,511.2,550.9,510.3,550.9z"/>
		<path fill="#060000" d="M552.9,550.9c-0.9,0-1.9-0.4-2.6-1.1c-1.3-1.4-1.3-3.6,0.2-4.9c8.6-8.1,19.8-12.5,31.6-12.5
			c11.6,0,22.7,4.3,31.2,12.2c1.4,1.3,1.5,3.5,0.2,4.9c-1.3,1.4-3.5,1.5-4.9,0.2c-7.2-6.6-16.6-10.3-26.5-10.3
			c-10,0-19.5,3.8-26.8,10.6C554.6,550.6,553.7,550.9,552.9,550.9z"/>
		<circle fill="#060000" cx="792.2" cy="591.8" r="32"/>
		<path fill="#060000" d="M893.1,550.8c-11.8,0-23-4.4-31.6-12.5c-1.4-1.3-1.5-3.5-0.2-4.9c1.3-1.4,3.5-1.5,4.9-0.2
			c7.3,6.8,16.8,10.6,26.8,10.6c9.8,0,19.2-3.7,26.5-10.3c1.4-1.3,3.6-1.2,4.9,0.2c1.3,1.4,1.2,3.6-0.2,4.9
			C915.8,546.5,904.7,550.8,893.1,550.8z"/>
		<circle fill="#FFFEFF" cx="797.7" cy="578.5" r="13.3"/>
		<circle fill="#FFFEFF" cx="783" cy="602.5" r="4.6"/>
		<circle fill="#060000" cx="893.2" cy="591.8" r="32"/>
		<path fill="#060000" d="M792.1,550.8c-11.6,0-22.7-4.3-31.2-12.2c-1.4-1.3-1.5-3.5-0.2-4.9c1.3-1.4,3.5-1.5,4.9-0.2
			c7.2,6.6,16.6,10.3,26.5,10.3c10,0,19.5-3.8,26.8-10.6c1.4-1.3,3.6-1.3,4.9,0.2c1.3,1.4,1.3,3.6-0.2,4.9
			C815.1,546.4,803.9,550.8,792.1,550.8z"/>
		<circle fill="#FFFEFF" cx="887.7" cy="578.5" r="13.3"/>
		<circle fill="#FFFEFF" cx="902.5" cy="602.5" r="4.6"/>
		<path fill="#060000" d="M1142.2,550.9c-0.9,0-1.7-0.3-2.4-0.9c-7.3-6.8-16.8-10.6-26.8-10.6c-9.8,0-19.2,3.7-26.5,10.3
			c-1.4,1.3-3.6,1.2-4.9-0.2c-1.3-1.4-1.2-3.6,0.2-4.9c8.5-7.8,19.6-12.2,31.2-12.2c11.8,0,23,4.4,31.6,12.5
			c1.4,1.3,1.5,3.5,0.2,4.9C1144,550.5,1143.1,550.9,1142.2,550.9z"/>
		<circle fill="#060000" cx="1214" cy="591.8" r="32"/>
		<path fill="#060000" d="M1184.8,550.9c-0.9,0-1.9-0.4-2.6-1.1c-1.3-1.4-1.3-3.6,0.2-4.9c8.6-8.1,19.8-12.5,31.6-12.5
			c11.6,0,22.7,4.3,31.2,12.2c1.4,1.3,1.5,3.5,0.2,4.9c-1.3,1.4-3.5,1.5-4.9,0.2c-7.2-6.6-16.6-10.3-26.5-10.3
			c-10,0-19.5,3.8-26.8,10.6C1186.5,550.6,1185.7,550.9,1184.8,550.9z"/>
		<circle fill="#FFFEFF" cx="1208.5" cy="578.5" r="13.3"/>
		<circle fill="#FFFEFF" cx="1223.2" cy="602.5" r="4.6"/>
		<g>
			<path fill="#060000" d="M215.3,759c-0.9,0-1.7-0.3-2.4-0.9c-7.3-6.8-16.8-10.6-26.8-10.6c-9.8,0-19.2,3.7-26.5,10.3
				c-1.4,1.3-3.6,1.2-4.9-0.2c-1.3-1.4-1.2-3.6,0.2-4.9c8.5-7.8,19.6-12.2,31.2-12.2c11.8,0,23,4.4,31.6,12.5
				c1.4,1.3,1.5,3.5,0.2,4.9C217.2,758.7,216.2,759,215.3,759z"/>
			<path fill="#060000" d="M257.9,759c-0.9,0-1.9-0.4-2.6-1.1c-1.3-1.4-1.3-3.6,0.2-4.9c8.6-8.1,19.8-12.5,31.6-12.5
				c11.6,0,22.7,4.3,31.2,12.2c1.4,1.3,1.5,3.5,0.2,4.9c-1.3,1.4-3.5,1.5-4.9,0.2c-7.2-6.6-16.6-10.3-26.5-10.3
				c-10,0-19.5,3.8-26.8,10.6C259.6,758.7,258.8,759,257.9,759z"/>
		</g>
		<circle fill="#060000" cx="481.1" cy="799.9" r="32"/>
		<circle fill="#FFFEFF" cx="486.6" cy="786.6" r="13.3"/>
		<circle fill="#FFFEFF" cx="471.8" cy="810.6" r="4.6"/>
		<circle fill="#060000" cx="582.1" cy="799.9" r="32"/>
		<circle fill="#FFFEFF" cx="576.6" cy="786.6" r="13.3"/>
		<circle fill="#FFFEFF" cx="591.3" cy="810.6" r="4.6"/>
		<circle fill="#060000" cx="792.2" cy="799.9" r="32"/>
		<circle fill="#FFFEFF" cx="797.7" cy="786.6" r="13.3"/>
		<circle fill="#FFFEFF" cx="783" cy="810.6" r="4.6"/>
		<circle fill="#060000" cx="893.2" cy="799.9" r="32"/>
		<circle fill="#FFFEFF" cx="887.7" cy="786.6" r="13.3"/>
		<circle fill="#FFFEFF" cx="902.5" cy="810.6" r="4.6"/>
		<circle fill="#060000" cx="475.5" cy="381.7" r="32"/>
		<path fill="#060000" d="M504.7,340.8c-0.9,0-1.7-0.3-2.4-0.9c-7.3-6.8-16.8-10.6-26.8-10.6c-9.8,0-19.2,3.7-26.5,10.3
			c-1.4,1.3-3.6,1.2-4.9-0.2c-1.3-1.4-1.2-3.6,0.2-4.9c8.5-7.8,19.6-12.2,31.2-12.2c11.8,0,23,4.4,31.6,12.5
			c1.4,1.3,1.5,3.5,0.2,4.9C506.6,340.5,505.6,340.8,504.7,340.8z"/>
		<circle fill="#FFFEFF" cx="481" cy="368.4" r="13.3"/>
		<circle fill="#FFFEFF" cx="466.3" cy="392.4" r="4.6"/>
		<circle fill="#060000" cx="576.5" cy="381.7" r="32"/>
		<path fill="#060000" d="M547.3,325.7c-0.9,0-1.9-0.4-2.6-1.1c-1.3-1.4-1.3-3.6,0.2-4.9c8.6-8.1,19.8-12.5,31.6-12.5
			c11.6,0,22.7,4.3,31.2,12.2c1.4,1.3,1.5,3.5,0.2,4.9c-1.3,1.4-3.5,1.5-4.9,0.2c-7.2-6.6-16.6-10.3-26.5-10.3
			c-10,0-19.5,3.8-26.8,10.6C549,325.4,548.2,325.7,547.3,325.7z"/>
		<circle fill="#FFFEFF" cx="571" cy="368.4" r="13.3"/>
		<circle fill="#FFFEFF" cx="585.8" cy="392.4" r="4.6"/>
		<path fill="#060000" d="M236.6,249.9c-10.3,0-19.7-5.2-25.2-13.9c-1-1.6-0.5-3.8,1.1-4.8s3.8-0.5,4.8,1.1
			c4.2,6.6,11.4,10.6,19.2,10.6c7.8,0,15-3.9,19.2-10.6c1-1.6,3.2-2.1,4.8-1.1c1.6,1,2.1,3.2,1.1,4.8
			C256.2,244.8,246.8,249.9,236.6,249.9z"/>
		<path fill="#060000" d="M1162.9,675.7c-10.3,0-19.7-5.2-25.2-13.9c-1-1.6-0.5-3.8,1.1-4.8c1.6-1,3.8-0.5,4.8,1.1
			c4.2,6.6,11.4,10.6,19.2,10.6c7.8,0,15-3.9,19.2-10.6c1-1.6,3.2-2.1,4.8-1.1c1.6,1,2.1,3.2,1.1,4.8
			C1182.6,670.5,1173.2,675.7,1162.9,675.7z"/>
		<path fill="#060000" d="M258.8,430.2c-4.7,16.6-12.8,27.6-22.2,27.6c-9.3,0-17.6-11.1-22.2-27.7L258.8,430.2z"/>
		<path fill="#060000" d="M553.7,877c-1.2,0-2.3-0.6-3-1.6c-4.2-6.6-11.4-10.6-19.2-10.6c-7.8,0-15,3.9-19.2,10.6
			c-1,1.6-3.2,2.1-4.8,1.1c-1.6-1-2.1-3.2-1.1-4.8c5.5-8.6,14.9-13.8,25.1-13.8c10.3,0,19.7,5.2,25.2,13.9c1,1.6,0.5,3.8-1.1,4.8
			C555,876.8,554.4,877,553.7,877z"/>
		<path fill="#060000" d="M842.9,247.5c15.4,0,27.8-12.5,27.8-27.8h-55.7C815.1,235,827.5,247.5,842.9,247.5z"/>
		<path fill="#EE6F6C" d="M860.3,241.4c-4.1-4.4-10.3-7.2-17.4-7.2c-7.1,0-13.3,2.8-17.4,7.2c4.8,3.8,10.8,6.1,17.4,6.1
			S855.5,245.2,860.3,241.4z"/>
		<path fill="#060000" d="M534,247.5c10.4,0,18.8-12.5,18.8-27.8h-37.6C515.2,235,523.6,247.5,534,247.5z"/>
		<path fill="#EE6F6C" d="M545.8,241.4c-2.7-4.4-7-7.2-11.8-7.2c-4.8,0-9,2.8-11.8,7.2c3.2,3.8,7.3,6.1,11.8,6.1
			C538.5,247.5,542.6,245.2,545.8,241.4z"/>
		<circle fill="#060000" cx="1163.5" cy="231.5" r="10.7"/>
		<path fill="#060000" d="M523.7,437.1c6.1,0,11.7,0.6,16.4,1.7c0-0.3,0.1-0.6,0.1-0.9c0-5.9-7.4-10.7-16.5-10.7
			c-9.1,0-16.5,4.8-16.5,10.7c0,0.3,0,0.6,0.1,0.9C512,437.7,517.7,437.1,523.7,437.1z"/>
		<path fill="#060000" d="M236.6,645.8c-6.1,0-11.7-0.6-16.4-1.7c0,0.3-0.1,0.6-0.1,0.9c0,5.9,7.4,10.7,16.5,10.7
			c9.1,0,16.5-4.8,16.5-10.7c0-0.3,0-0.6-0.1-0.9C248.3,645.2,242.7,645.8,236.6,645.8z"/>
		<circle fill="#060000" cx="842.9" cy="660.5" r="10.7"/>
		<path fill="#060000" d="M211.6,398.7c-1.6,0-3.1-1.1-3.4-2.8c-2.7-12.4-11.8-21.1-22.1-21.1c-10.3,0-19.4,8.7-22.1,21.1
			c-0.2,1.1-0.9,2-1.9,2.4c-1,0.5-2.1,0.5-3.1,0l-10.3-5.2c-1.7-0.9-2.4-3-1.5-4.7c0.9-1.7,3-2.4,4.7-1.5l6.5,3.3
			c4.5-13.3,15.4-22.3,27.7-22.3c13.6,0,25.5,11,28.9,26.6c0.4,1.9-0.8,3.8-2.7,4.2C212.1,398.7,211.8,398.7,211.6,398.7z"/>
		<path fill="#060000" d="M261.4,398.7c-0.2,0-0.5,0-0.7-0.1c-1.9-0.4-3.1-2.3-2.7-4.2c3.4-15.7,15.3-26.6,28.9-26.6
			c12.4,0,23.3,9,27.7,22.3l6.5-3.3c1.7-0.9,3.8-0.2,4.7,1.5c0.9,1.7,0.2,3.8-1.5,4.7l-10.3,5.2c-1,0.5-2.1,0.5-3.1,0
			c-1-0.5-1.7-1.4-1.9-2.4c-2.7-12.4-11.8-21.1-22.1-21.1c-10.3,0-19.4,8.7-22.1,21.1C264.5,397.6,263.1,398.7,261.4,398.7z"/>
		<path fill="#FFFEFF" d="M217.7,439.6h37.8c1.2-2.9,2.3-6,3.3-9.4l-44.4-0.1C215.4,433.5,216.5,436.7,217.7,439.6z"/>
		<path fill="#FFFEFF" d="M219.7,443.9c4.6,8.7,10.4,13.9,16.8,13.9s12.3-5.2,16.9-13.9H219.7z"/>
		<path fill="#060000" d="M1185.7,418.7c-4.7,16.6-12.8,27.6-22.2,27.6c-9.3,0-17.6-11.1-22.2-27.7L1185.7,418.7z"/>
		<path fill="#FFFEFF" d="M1144.6,428.1h37.8c1.2-2.9,2.3-6,3.3-9.4l-44.4-0.1C1142.3,422,1143.4,425.2,1144.6,428.1z"/>
		<path fill="#FFFEFF" d="M1146.7,432.4c4.6,8.7,10.4,13.9,16.8,13.9s12.3-5.2,16.9-13.9H1146.7z"/>
		<g>
			<path fill="#060000" d="M1142.3,769.2c-1.1,0-2.2-0.5-2.9-1.5c-7.3-10.2-16.6-15.8-26.3-15.8c-9.6,0-18.8,5.5-26,15.4
				c-1.1,1.6-3.3,1.9-4.9,0.8c-1.6-1.1-1.9-3.3-0.8-4.9c8.6-11.8,19.8-18.3,31.7-18.3c12.1,0,23.4,6.7,32,18.8
				c1.1,1.6,0.8,3.8-0.8,4.9C1143.7,769,1143,769.2,1142.3,769.2z"/>
			<path fill="#060000" d="M1184.9,769.2c-0.7,0-1.4-0.2-2-0.6c-1.6-1.1-1.9-3.3-0.8-4.9c8.6-12.1,20-18.8,32-18.8
				c11.9,0,23.1,6.5,31.7,18.3c1.1,1.6,0.8,3.8-0.8,4.9c-1.6,1.1-3.8,0.8-4.9-0.8c-7.2-9.9-16.5-15.4-26-15.4
				c-9.7,0-19.1,5.6-26.3,15.8C1187,768.7,1186,769.2,1184.9,769.2z"/>
			<path fill="#060000" d="M1138.6,813.3c-1.6,0-3.1-1.1-3.4-2.8c-2.7-12.4-11.8-21.1-22.1-21.1c-10.3,0-19.4,8.7-22.1,21.1
				c-0.2,1.1-0.9,2-1.9,2.4c-1,0.5-2.1,0.5-3.1,0l-10.3-5.2c-1.7-0.9-2.4-3-1.5-4.7c0.9-1.7,3-2.4,4.7-1.5l6.5,3.3
				c4.5-13.3,15.4-22.3,27.7-22.3c13.6,0,25.5,11,28.9,26.6c0.4,1.9-0.8,3.8-2.7,4.2C1139,813.3,1138.8,813.3,1138.6,813.3z"/>
			<path fill="#060000" d="M1188.4,813.3c-0.2,0-0.5,0-0.7-0.1c-1.9-0.4-3.1-2.3-2.7-4.2c3.4-15.7,15.3-26.6,28.9-26.6
				c12.4,0,23.3,9,27.7,22.3l6.5-3.3c1.7-0.9,3.8-0.2,4.7,1.5c0.9,1.7,0.2,3.8-1.5,4.7L1241,813c-1,0.5-2.1,0.5-3.1,0
				s-1.7-1.4-1.9-2.4c-2.7-12.4-11.8-21.1-22.1-21.1c-10.3,0-19.4,8.7-22.1,21.1C1191.5,812.2,1190,813.3,1188.4,813.3z"/>
		</g>
		<path fill="#060000" d="M1176.3,867.3c-4.3,0-8.6-2.4-12.8-7.2c-4.2,4.8-8.5,7.2-12.8,7.2c-4.1,0-7.4-2.9-10-5.3
			c-0.6-0.6-1.3-1.1-1.8-1.5c-1.5-1.2-1.8-3.4-0.6-4.9c1.2-1.5,3.4-1.8,4.9-0.6c0.7,0.6,1.4,1.2,2.1,1.8c1.7,1.5,3.9,3.5,5.4,3.5
			c2.8,0,6.3-2.8,10-7.8c0.7-0.9,1.7-1.5,2.8-1.5s2.2,0.5,2.8,1.5c3.6,5.1,7.2,7.8,10,7.8c1.5,0,3.7-2,5.4-3.5
			c0.7-0.7,1.4-1.3,2.1-1.8c1.5-1.2,3.7-0.9,4.9,0.6c1.2,1.5,0.9,3.7-0.6,4.9c-0.5,0.4-1.1,1-1.8,1.5
			C1183.7,864.3,1180.4,867.3,1176.3,867.3z"/>
		<path fill="#060000" d="M249.4,875.5c-4.3,0-8.6-2.4-12.8-7.2c-4.2,4.8-8.5,7.2-12.8,7.2c-4.1,0-7.4-2.9-10-5.3
			c-0.6-0.6-1.3-1.1-1.8-1.5c-1.5-1.2-1.8-3.4-0.6-4.9c1.2-1.5,3.4-1.8,4.9-0.6c0.7,0.6,1.4,1.2,2.1,1.8c1.7,1.5,3.9,3.5,5.4,3.5
			c2.8,0,6.3-2.8,10-7.8c0.7-0.9,1.7-1.5,2.8-1.5l0,0c1.1,0,2.2,0.5,2.8,1.5c3.6,5.1,7.2,7.8,10,7.8c1.5,0,3.7-2,5.4-3.5
			c0.7-0.7,1.4-1.3,2.1-1.8c1.5-1.2,3.7-0.9,4.9,0.6c1.2,1.5,0.9,3.7-0.6,4.9c-0.5,0.4-1.1,1-1.8,1.5
			C256.8,872.6,253.6,875.5,249.4,875.5z"/>
		<g>
			<path fill="#060000" d="M508.1,598.4h-57.6c-0.9,0-1.8-0.4-2.5-1l-9.6-9.6c-1.4-1.4-1.4-3.6,0-5c1.4-1.4,3.6-1.4,5,0l8.6,8.6
				h56.1c1.9,0,3.5,1.6,3.5,3.5S510.1,598.4,508.1,598.4z"/>
			<path fill="#060000" d="M612.6,598.4H555c-1.9,0-3.5-1.6-3.5-3.5s1.6-3.5,3.5-3.5h56.1l8.6-8.6c1.4-1.4,3.6-1.4,5,0
				c1.4,1.4,1.4,3.6,0,5l-9.6,9.6C614.4,598.1,613.5,598.4,612.6,598.4z"/>
		</g>
		<g>
			<path fill="#060000" d="M819.5,384h-57.6c-0.9,0-1.8-0.4-2.5-1l-9.6-9.6c-1.4-1.4-1.4-3.6,0-5c1.4-1.4,3.6-1.4,5,0l8.6,8.6h56.1
				c1.9,0,3.5,1.6,3.5,3.5S821.4,384,819.5,384z"/>
			<path fill="#060000" d="M923.9,384h-63.7c-1.9,0-3.5-1.6-3.5-3.5s1.6-3.5,3.5-3.5h62.2l8.6-8.6c1.4-1.4,3.6-1.4,4.9,0
				s1.4,3.6,0,4.9l-9.6,9.6C925.7,383.7,924.8,384,923.9,384z"/>
		</g>
		<path fill="#060000" d="M559.9,659.2h-56.7c-1.9,0-3.5-1.6-3.5-3.5s1.6-3.5,3.5-3.5h56.7c1.9,0,3.5,1.6,3.5,3.5
			S561.8,659.2,559.9,659.2z"/>
		<g>
			<path fill="#060000" d="M510.6,128.2c-1.1,0-2.2-0.5-2.9-1.6c-7.1-10.7-16.3-16.6-25.8-16.6c-9.3,0-18.4,5.7-25.4,16.1
				c-1.1,1.6-3.3,2-4.9,0.9c-1.6-1.1-2-3.3-0.9-4.9c8.4-12.4,19.5-19.2,31.2-19.2c11.9,0,23.1,7,31.6,19.7c1.1,1.6,0.6,3.8-1,4.9
				C512,128,511.3,128.2,510.6,128.2z"/>
			<path fill="#060000" d="M552.5,128.2c-0.7,0-1.3-0.2-1.9-0.6c-1.6-1.1-2-3.2-1-4.9C558,110,569.2,103,581.1,103
				c11.7,0,22.8,6.8,31.2,19.2c1.1,1.6,0.7,3.8-0.9,4.9c-1.6,1.1-3.8,0.7-4.9-0.9c-7.1-10.4-16.1-16.1-25.4-16.1
				c-9.5,0-18.6,5.9-25.8,16.6C554.7,127.6,553.6,128.2,552.5,128.2z"/>
		</g>
		<g>
			<path fill="#060000" d="M508.1,182.5h-57.6c-0.9,0-1.8-0.4-2.5-1l-9.6-9.6c-1.4-1.4-1.4-3.6,0-5c1.4-1.4,3.6-1.4,5,0l8.6,8.6
				h56.1c1.9,0,3.5,1.6,3.5,3.5S510.1,182.5,508.1,182.5z"/>
			<path fill="#060000" d="M612.6,182.5H555c-1.9,0-3.5-1.6-3.5-3.5s1.6-3.5,3.5-3.5h56.1l8.6-8.6c1.4-1.4,3.6-1.4,5,0
				c1.4,1.4,1.4,3.6,0,5l-9.6,9.6C614.4,182.1,613.5,182.5,612.6,182.5z"/>
		</g>
		<path fill="#060000" d="M871.2,464.8h-56.7c-1.9,0-3.5-1.6-3.5-3.5s1.6-3.5,3.5-3.5h56.7c1.9,0,3.5,1.6,3.5,3.5
			S873.2,464.8,871.2,464.8z"/>
		<path fill="#060000" d="M1099,610.6c-1.3,0-2.6-0.8-3.2-2.1c-0.8-1.8,0-3.8,1.8-4.6c0.5-0.2,10.8-4.6,24.2-3.6
			c-4.3-5.3-12.2-12.3-24.8-14.1c-1.9-0.3-3.2-2-3-4c0.3-1.9,2-3.2,4-3c24.4,3.5,33.8,23.4,34.2,24.3c0.6,1.2,0.4,2.7-0.5,3.7
			c-0.9,1-2.2,1.5-3.5,1.2c-14.9-3.7-27.6,1.8-27.8,1.9C1099.9,610.5,1099.5,610.6,1099,610.6z"/>
		<g>
			<path fill="#060000" d="M178.3,815.5c-1.3,0-2.6-0.8-3.2-2.1c-0.8-1.8,0-3.8,1.8-4.6c0.5-0.2,10.8-4.6,24.2-3.6
				c-4.3-5.3-12.2-12.3-24.8-14.1c-1.9-0.3-3.2-2-3-4s2-3.2,4-3c24.4,3.5,33.8,23.4,34.2,24.3c0.6,1.2,0.4,2.7-0.5,3.7
				c-0.9,1-2.2,1.5-3.5,1.2c-14.9-3.7-27.6,1.8-27.8,1.9C179.3,815.4,178.8,815.5,178.3,815.5z"/>
			<path fill="#060000" d="M294.8,815.5c-0.5,0-0.9-0.1-1.4-0.3l0,0c-0.1-0.1-12.9-5.5-27.8-1.9c-1.3,0.3-2.7-0.1-3.5-1.2
				c-0.9-1-1-2.5-0.5-3.7c0.4-0.8,9.8-20.8,34.2-24.3c1.9-0.3,3.7,1.1,4,3c0.3,1.9-1.1,3.7-3,4c-12.5,1.8-20.4,8.8-24.7,14.1
				c13.4-1.1,23.6,3.3,24.1,3.6c1.8,0.8,2.6,2.8,1.8,4.6C297.5,814.8,296.2,815.5,294.8,815.5z"/>
		</g>
		<path fill="#060000" d="M826.9,782.2c-0.1,0-0.3,0-0.4,0c-1.9-0.2-45.8-5.8-63.3-32.8c-1.1-1.6-0.6-3.8,1-4.8
			c1.6-1.1,3.8-0.6,4.8,1c15.8,24.2,57.9,29.6,58.3,29.7c1.9,0.2,3.3,2,3.1,3.9C830.2,780.9,828.7,782.2,826.9,782.2z"/>
		<path fill="#060000" d="M858.9,782.2c-1.7,0-3.3-1.3-3.5-3.1c-0.2-1.9,1.1-3.7,3.1-3.9c0.4-0.1,42.5-5.5,58.3-29.7
			c1.1-1.6,3.2-2.1,4.8-1c1.6,1.1,2.1,3.2,1,4.8c-17.6,27-61.5,32.6-63.3,32.8C859.2,782.2,859,782.2,858.9,782.2z"/>
		<path fill="#060000" d="M810,864.5c-1.3,0-2.5-0.7-3.1-1.9c-0.9-1.7-0.2-3.8,1.5-4.7l7.5-3.9c0.5-0.3,1-0.4,1.6-0.4h56.7
			c0.6,0,1.2,0.1,1.7,0.4l7.2,3.9c1.7,0.9,2.3,3,1.4,4.7c-0.9,1.7-3,2.3-4.7,1.4l-6.4-3.4h-55l-6.7,3.5
			C811.1,864.4,810.5,864.5,810,864.5z"/>
	</g>
</g>
<g id="text">
</g>
</svg>
